<svg width="35" height="20" viewBox="0 0 35 20" fill="none" xmlns="http://www.w3.org/2000/svg">
    <path d="M9.5498 12.1572V9.02148H17.6494V16.4355C16.8623 17.1973 15.7197 17.8701 14.2217 18.4541C12.7321 19.0296 11.2214 19.3174 9.68945 19.3174C7.74284 19.3174 6.0459 18.9111 4.59863 18.0986C3.15137 17.2777 2.0638 16.1097 1.33594 14.5947C0.608073 13.0713 0.244141 11.4167 0.244141 9.63086C0.244141 7.69271 0.650391 5.97038 1.46289 4.46387C2.27539 2.95736 3.46452 1.80208 5.03027 0.998047C6.22363 0.380208 7.70898 0.0712891 9.48633 0.0712891C11.7969 0.0712891 13.5996 0.557943 14.8945 1.53125C16.1979 2.49609 17.0358 3.83333 17.4082 5.54297L13.6758 6.24121C13.4134 5.32715 12.9183 4.60775 12.1904 4.08301C11.471 3.5498 10.5697 3.2832 9.48633 3.2832C7.8444 3.2832 6.53678 3.80371 5.56348 4.84473C4.59863 5.88574 4.11621 7.43034 4.11621 9.47852C4.11621 11.6875 4.6071 13.3464 5.58887 14.4551C6.57064 15.5553 7.8571 16.1055 9.44824 16.1055C10.2354 16.1055 11.0225 15.9531 11.8096 15.6484C12.6051 15.3353 13.2865 14.9587 13.8535 14.5186V12.1572H9.5498ZM20.2773 12.0684C20.2773 10.8835 20.5693 9.73665 21.1533 8.62793C21.7373 7.51921 22.5625 6.67285 23.6289 6.08887C24.7038 5.50488 25.9014 5.21289 27.2217 5.21289C29.2614 5.21289 30.9329 5.87728 32.2363 7.20605C33.5397 8.52637 34.1914 10.1979 34.1914 12.2207C34.1914 14.2604 33.5312 15.9531 32.2109 17.2988C30.8991 18.6361 29.2445 19.3047 27.2471 19.3047C26.0114 19.3047 24.8307 19.0254 23.7051 18.4668C22.5879 17.9082 21.7373 17.0915 21.1533 16.0166C20.5693 14.9333 20.2773 13.6172 20.2773 12.0684ZM23.9336 12.2588C23.9336 13.596 24.251 14.6201 24.8857 15.3311C25.5205 16.042 26.3034 16.3975 27.2344 16.3975C28.1654 16.3975 28.944 16.042 29.5703 15.3311C30.2051 14.6201 30.5225 13.5876 30.5225 12.2334C30.5225 10.9131 30.2051 9.89746 29.5703 9.18652C28.944 8.47559 28.1654 8.12012 27.2344 8.12012C26.3034 8.12012 25.5205 8.47559 24.8857 9.18652C24.251 9.89746 23.9336 10.9215 23.9336 12.2588Z" fill="#FFEC42"/>
</svg>
