<svg fill="none" height="108" viewBox="0 0 361 108" width="361" xmlns="http://www.w3.org/2000/svg" xmlns:xlink="http://www.w3.org/1999/xlink"><filter id="a" color-interpolation-filters="sRGB" filterUnits="userSpaceOnUse" height="106.56" width="359.879" x=".299988" y=".560059"><feFlood flood-opacity="0" result="BackgroundImageFix"/><feColorMatrix in="SourceAlpha" result="hardAlpha" type="matrix" values="0 0 0 0 0 0 0 0 0 0 0 0 0 0 0 0 0 0 127 0"/><feOffset dy="4"/><feGaussianBlur stdDeviation="2"/><feComposite in2="hardAlpha" operator="out"/><feColorMatrix type="matrix" values="0 0 0 0 0 0 0 0 0 0 0 0 0 0 0 0 0 0 0.25 0"/><feBlend in2="BackgroundImageFix" mode="normal" result="effect1_dropShadow_1354_528"/><feBlend in="SourceGraphic" in2="effect1_dropShadow_1354_528" mode="normal" result="shape"/></filter><g filter="url(#a)"><path d="m35.24 66.22-1.26-2.8-3.64-7.14-3.5-7.42c-.3733-.6533-.84-1.6333-1.4-2.94l-5.74-11.9-15.4-32.34h28.56l30.38 64.68v31.64h-28zm18.06-34.72 13.02-29.82h28l-10.92 22.68-4.62 9.52-8.82 18.34-3.5 7.28zm100.823 18.34c0-8.12-.047-13.44-.14-15.96-.187-3.8267-.7-6.58-1.54-8.26-.84-1.7733-2.193-2.8467-4.06-3.22-1.867-.28-4.527-.42-7.98-.42-4.013 0-6.627.1867-7.84.56v-21.840007c.84-.093332 2.1-.139999 3.78-.139999h4.06c10.453 0 18.527.839996 24.22 2.520006 5.787 1.58666 9.987 4.24666 12.6 7.98 2.427 3.4533 3.92 7.98 4.48 13.58.653 5.6.98 14 .98 25.2 0 9.8-.233 17.36-.7 22.68-.373 5.2267-1.4 9.5667-3.08 13.02-1.867 3.92-4.76 6.9067-8.68 8.96-3.827 2.0533-9.193 3.4067-16.1 4.06zm-13.72 49.28c-13.627 0-23.427-1.4933-29.4-4.48-3.08-1.4933-5.507-3.5-7.28-6.02s-3.08-5.6467-3.92-9.38c-.7467-3.2667-1.2134-7-1.4-11.2-.1867-4.2933-.28-10.36-.28-18.2 0-9.8.1866-17.3133.56-22.54.4666-5.2267 1.54-9.6133 3.22-13.16 1.867-3.8267 4.713-6.76667 8.54-8.82001 3.827-2.05333 9.24-3.45333 16.24-4.19999v48.72c0 5.5067.093 10.78.28 15.82.187 3.8267.653 6.6267 1.4 8.4.84 1.7733 2.193 2.8 4.06 3.08 1.587.3733 4.247.56 7.98.56 3.827 0 6.44-.14 7.84-.42v21.7c-.84.0933-2.1.14-3.78.14zm57.994-97.44h28v96.32h-28zm33.88 73.78h29.96v22.54h-29.96zm95.342-25.62c0-8.12-.047-13.44-.14-15.96-.187-3.8267-.7-6.58-1.54-8.26-.84-1.7733-2.193-2.8467-4.06-3.22-1.867-.28-4.527-.42-7.98-.42-4.013 0-6.627.1867-7.84.56v-21.840007c.84-.093332 2.1-.139999 3.78-.139999h4.06c10.453 0 18.527.839996 24.22 2.520006 5.787 1.58666 9.987 4.24666 12.6 7.98 2.427 3.4533 3.92 7.98 4.48 13.58.653 5.6.98 14 .98 25.2 0 9.8-.233 17.36-.7 22.68-.373 5.2267-1.4 9.5667-3.08 13.02-1.867 3.92-4.76 6.9067-8.68 8.96-3.827 2.0533-9.193 3.4067-16.1 4.06zm-13.72 49.28c-13.627 0-23.427-1.4933-29.4-4.48-3.08-1.4933-5.507-3.5-7.28-6.02s-3.08-5.6467-3.92-9.38c-.747-3.2667-1.213-7-1.4-11.2-.187-4.2933-.28-10.36-.28-18.2 0-9.8.187-17.3133.56-22.54.467-5.2267 1.54-9.6133 3.22-13.16 1.867-3.8267 4.713-6.76667 8.54-8.82001 3.827-2.05333 9.24-3.45333 16.24-4.19999v48.72c0 5.5067.093 10.78.28 15.82.187 3.8267.653 6.6267 1.4 8.4.84 1.7733 2.193 2.8 4.06 3.08 1.587.3733 4.247.56 7.98.56 3.827 0 6.44-.14 7.84-.42v21.7c-.84.0933-2.1.14-3.78.14z" fill="#fff"/></g></svg>