<svg width="120" height="34" viewBox="0 0 120 34" fill="none" xmlns="http://www.w3.org/2000/svg">
<path d="M11.72 32.616C15.048 32.616 16.712 31.704 16.712 29.88C16.712 28.856 16.136 28.024 14.984 27.384C13.832 26.712 12.44 26.168 10.808 25.752C9.176 25.336 7.56 24.856 5.96 24.312C4.392 23.768 3.08 22.904 2.024 21.72C1 20.536 0.584 18.984 0.776 17.064C0.968 15.144 1.944 13.56 3.704 12.312C5.496 11.064 7.688 10.44 10.28 10.44C12.904 10.44 15.016 10.856 16.616 11.688C18.216 12.52 19.112 13.64 19.304 15.048C19.432 15.912 19.288 16.712 18.872 17.448C18.488 18.184 17.832 18.568 16.904 18.6C16.008 18.632 15.256 18.392 14.648 17.88C14.072 17.368 13.8 16.776 13.832 16.104C13.864 15.432 14.12 14.84 14.6 14.328C15.08 13.784 15.32 13.352 15.32 13.032C15.32 12.488 14.792 12.088 13.736 11.832C12.712 11.544 11.512 11.4 10.136 11.4C8.792 11.4 7.688 11.704 6.824 12.312C5.96 12.92 5.528 13.672 5.528 14.568C5.528 15.464 6.056 16.232 7.112 16.872C8.2 17.512 9.512 18.04 11.048 18.456C12.584 18.84 14.104 19.288 15.608 19.8C17.144 20.28 18.44 21.064 19.496 22.152C20.584 23.24 21.128 24.616 21.128 26.28C21.128 28.488 20.344 30.264 18.776 31.608C17.208 32.92 14.84 33.576 11.672 33.576C8.504 33.576 5.928 33.096 3.944 32.136C1.992 31.176 0.92 29.944 0.728 28.44C0.6 27.576 0.744 26.776 1.16 26.04C1.576 25.304 2.232 24.92 3.128 24.888C4.024 24.856 4.76 25.096 5.336 25.608C5.944 26.12 6.232 26.712 6.2 27.384C6.168 28.056 5.912 28.664 5.432 29.208C4.952 29.72 4.712 30.136 4.712 30.456C4.712 31.096 5.448 31.624 6.92 32.04C8.424 32.424 10.024 32.616 11.72 32.616ZM48.9012 32.04H51.3013V33H39.3013V32.04H41.7013V18.6C41.7013 16.328 41.3653 14.712 40.6933 13.752C40.0213 12.792 39.0133 12.312 37.6693 12.312C35.8453 12.312 34.3893 13.272 33.3013 15.192V32.04H35.7013V33H23.7013V32.04H26.1013V1.8H23.7013V0.839999H33.3013V13.416C33.9093 12.552 34.8533 11.832 36.1333 11.256C37.4133 10.68 38.8213 10.392 40.3573 10.392C46.0533 10.392 48.9012 13.48 48.9012 19.656V32.04ZM62.5588 30.12C63.2628 31.72 64.4788 32.52 66.2068 32.52C67.9348 32.52 69.1668 31.704 69.9028 30.072C70.6388 28.44 71.0068 25.752 71.0068 22.008C71.0068 18.232 70.6388 15.528 69.9028 13.896C69.1668 12.232 67.9348 11.4 66.2068 11.4C64.4788 11.4 63.2628 12.232 62.5588 13.896C61.8548 15.528 61.5028 18.232 61.5028 22.008C61.5028 25.784 61.8548 28.488 62.5588 30.12ZM66.1108 33.48C63.0708 33.48 60.3188 32.488 57.8548 30.504C55.3908 28.52 54.1588 25.704 54.1588 22.056C54.1588 20.104 54.5108 18.36 55.2148 16.824C55.9508 15.288 56.9108 14.072 58.0948 13.176C59.3108 12.28 60.6068 11.608 61.9828 11.16C63.3588 10.68 64.7668 10.44 66.2068 10.44C67.6468 10.44 69.0548 10.68 70.4308 11.16C71.8388 11.608 73.1348 12.28 74.3188 13.176C75.5348 14.072 76.5108 15.288 77.2468 16.824C77.9828 18.36 78.3508 20.088 78.3508 22.008C78.3508 23.928 77.9828 25.64 77.2468 27.144C76.5108 28.648 75.5348 29.848 74.3188 30.744C71.8868 32.568 69.1508 33.48 66.1108 33.48ZM80.2925 11.88V10.92H93.2525V11.88H90.7085L95.8925 23.496L99.0125 15.672L97.4285 11.88H95.6525V10.92H107.653V11.88H105.541L110.725 23.496L115.189 11.88H111.349V10.92H119.173V11.88H116.293L108.181 33H107.173L99.5885 17.112L93.3005 33H92.2925L82.5485 11.88H80.2925Z" fill="white"/>
</svg>
