<svg width="24" height="24" viewBox="0 0 24 24" fill="none" xmlns="http://www.w3.org/2000/svg">
    <g opacity="0.5" clip-path="url(#clip0_1350_440)">
        <path d="M23.9999 11.2471C23.8553 8.9071 23.0291 6.66059 21.6231 4.7845C20.2171 2.90841 18.2929 1.48477 16.0876 0.68907C13.8823 -0.106627 11.4924 -0.239591 9.21247 0.306571C6.93253 0.852733 4.86225 2.05414 3.25686 3.76269C1.65147 5.47124 0.581149 7.61224 0.17785 9.92173C-0.225449 12.2312 0.0559044 14.6083 0.987224 16.7598C1.91854 18.9113 3.45912 20.7433 5.41902 22.0298C7.37892 23.3164 9.67246 24.0013 12.0169 24.0001H18.9999C20.3256 23.9988 21.5966 23.4715 22.534 22.5341C23.4714 21.5968 23.9986 20.3258 23.9999 19.0001V11.2471ZM21.9999 19.0001C21.9999 19.7957 21.6838 20.5588 21.1212 21.1214C20.5586 21.684 19.7956 22.0001 18.9999 22.0001H12.0169C10.6058 21.9994 9.21075 21.7014 7.92261 21.1254C6.63446 20.5494 5.48218 19.7083 4.54091 18.6571C3.59508 17.6064 2.88484 16.3655 2.4578 15.0179C2.03077 13.6702 1.89681 12.2468 2.06491 10.8431C2.33034 8.62902 3.3251 6.56626 4.89235 4.98C6.4596 3.39374 8.51021 2.37419 10.7209 2.08207C11.1521 2.02803 11.5863 2.00064 12.0209 2.00007C14.3514 1.99372 16.6097 2.80798 18.3999 4.30008C19.4454 5.16902 20.3036 6.24123 20.9224 7.45171C21.5413 8.66218 21.9078 9.98572 21.9999 11.3421V19.0001Z" fill="white"/>
        <path d="M8 9H12C12.2652 9 12.5196 8.89464 12.7071 8.70711C12.8946 8.51957 13 8.26522 13 8C13 7.73478 12.8946 7.48043 12.7071 7.29289C12.5196 7.10536 12.2652 7 12 7H8C7.73478 7 7.48043 7.10536 7.29289 7.29289C7.10536 7.48043 7 7.73478 7 8C7 8.26522 7.10536 8.51957 7.29289 8.70711C7.48043 8.89464 7.73478 9 8 9Z" fill="white"/>
        <path d="M16 11H8C7.73478 11 7.48043 11.1054 7.29289 11.2929C7.10536 11.4804 7 11.7348 7 12C7 12.2652 7.10536 12.5196 7.29289 12.7071C7.48043 12.8946 7.73478 13 8 13H16C16.2652 13 16.5196 12.8946 16.7071 12.7071C16.8946 12.5196 17 12.2652 17 12C17 11.7348 16.8946 11.4804 16.7071 11.2929C16.5196 11.1054 16.2652 11 16 11Z" fill="white"/>
        <path d="M16 15H8C7.73478 15 7.48043 15.1054 7.29289 15.2929C7.10536 15.4804 7 15.7348 7 16C7 16.2652 7.10536 16.5196 7.29289 16.7071C7.48043 16.8946 7.73478 17 8 17H16C16.2652 17 16.5196 16.8946 16.7071 16.7071C16.8946 16.5196 17 16.2652 17 16C17 15.7348 16.8946 15.4804 16.7071 15.2929C16.5196 15.1054 16.2652 15 16 15Z" fill="white"/>
    </g>
    <defs>
        <clipPath id="clip0_1350_440">
            <rect width="24" height="24" fill="white"/>
        </clipPath>
    </defs>
</svg>
