<svg width="24" height="24" viewBox="0 0 24 24" fill="none" xmlns="http://www.w3.org/2000/svg">
    <g clip-path="url(#clip0_1500_724)">
        <path d="M2.31001 17.1922L7.81001 22.6922C7.04098 23.0054 6.19665 23.0848 5.38273 22.9203C4.56881 22.7559 3.82149 22.355 3.23434 21.7679C2.64719 21.1807 2.2463 20.4334 2.08188 19.6195C1.91747 18.8056 1.99682 17.9612 2.31001 17.1922ZM7.32701 1.9802C7.58692 1.92716 7.81512 1.77304 7.9614 1.55175C8.10768 1.33045 8.16006 1.06012 8.10701 0.800204C8.05397 0.540292 7.89985 0.312096 7.67855 0.165818C7.45726 0.0195396 7.18692 -0.0328394 6.92701 0.020204C4.24536 0.49 1.84403 1.96535 0.213011 4.1452C0.0649893 4.35878 0.00591946 4.62159 0.0483133 4.87797C0.0907071 5.13435 0.231235 5.36415 0.440131 5.51871C0.649027 5.67327 0.909885 5.74045 1.16745 5.70601C1.42502 5.67157 1.65906 5.53822 1.82001 5.3342C3.15416 3.54753 5.12735 2.34578 7.32701 1.9802ZM23.2 16.0232C22.941 15.9664 22.6701 16.0147 22.4467 16.1576C22.2234 16.3005 22.066 16.5263 22.009 16.7852C21.6291 18.943 20.4434 20.8758 18.692 22.1922C18.4777 22.3487 18.3344 22.5839 18.2935 22.8461C18.2526 23.1082 18.3175 23.3759 18.474 23.5902C18.6305 23.8045 18.8657 23.9479 19.1279 23.9887C19.39 24.0296 19.6577 23.9647 19.872 23.8082C22.0122 22.1996 23.4715 19.8472 23.962 17.2152C23.9903 17.0869 23.993 16.9543 23.97 16.8249C23.947 16.6956 23.8988 16.572 23.828 16.4613C23.7572 16.3506 23.6654 16.2549 23.5576 16.1798C23.4499 16.1046 23.3283 16.0514 23.2 16.0232ZM20.167 5.2472L21.707 3.7072C21.8025 3.61496 21.8787 3.50461 21.9311 3.38261C21.9835 3.2606 22.0111 3.12938 22.0123 2.99661C22.0134 2.86383 21.9881 2.73215 21.9378 2.60925C21.8876 2.48635 21.8133 2.3747 21.7194 2.28081C21.6255 2.18692 21.5139 2.11266 21.391 2.06238C21.2681 2.0121 21.1364 1.9868 21.0036 1.98795C20.8708 1.98911 20.7396 2.01669 20.6176 2.0691C20.4956 2.12151 20.3853 2.19769 20.293 2.2932L18.751 3.8352C17.3704 2.73812 15.6813 2.10011 13.9202 2.01045C12.159 1.9208 10.4139 2.38399 8.92901 3.3352L3.42901 6.73521C2.78406 7.13379 2.23765 7.67312 1.83068 8.31282C1.42372 8.95251 1.16675 9.67599 1.07902 10.4291C0.991295 11.1822 1.07508 11.9453 1.32411 12.6614C1.57314 13.3776 1.98095 14.028 2.51701 14.5642L9.47601 21.5232C10.0132 22.0605 10.6651 22.469 11.3829 22.7181C12.1007 22.9671 12.8656 23.0502 13.6201 22.9611C14.3746 22.872 15.099 22.613 15.739 22.2035C16.379 21.7941 16.9178 21.2449 17.315 20.5972L20.915 14.7212C21.7425 13.2455 22.1131 11.5572 21.98 9.87059C21.8468 8.18394 21.2158 6.57481 20.167 5.2472Z" fill="white"/>
    </g>
    <defs>
        <clipPath id="clip0_1500_724">
            <rect width="24" height="24" fill="white"/>
        </clipPath>
    </defs>
</svg>
