<svg width="25" height="24" viewBox="0 0 25 24" fill="none" xmlns="http://www.w3.org/2000/svg">
    <g opacity="0.5">
        <path d="M20.8856 15.3312L17.108 21.4862C16.6932 22.1662 16.1285 22.7428 15.4568 23.172C14.7852 23.6012 14.0244 23.8718 13.2323 23.9632C13.0235 23.9879 12.8135 24.0003 12.6033 24.0002C11.5272 23.9987 10.4778 23.6652 9.59884 23.0452C8.69054 23.7247 7.56855 24.0568 6.43614 23.9814C5.30373 23.906 4.23582 23.4281 3.42589 22.6343C2.61597 21.8404 2.11761 20.7832 2.02111 19.654C1.92461 18.5249 2.23636 17.3986 2.89986 16.4792L1.5829 15.1662C1.02056 14.6047 0.592741 13.9234 0.331488 13.1733C0.0702347 12.4233 -0.0176836 11.6239 0.0743175 10.8352C0.166318 10.0464 0.435854 9.28861 0.862739 8.61859C1.28962 7.94857 1.86279 7.38367 2.53932 6.9662L8.31493 3.4002C9.87947 2.39898 11.7194 1.91356 13.575 2.01242C15.4307 2.11128 17.2084 2.78944 18.6573 3.9512L20.3188 2.2922C20.4112 2.19669 20.5217 2.12051 20.6439 2.0681C20.7661 2.01569 20.8975 1.98811 21.0305 1.98695C21.1634 1.9858 21.2953 2.0111 21.4184 2.06138C21.5415 2.11166 21.6533 2.18592 21.7473 2.27981C21.8414 2.3737 21.9157 2.48535 21.9661 2.60825C22.0164 2.73115 22.0418 2.86283 22.0406 2.9956C22.0395 3.12838 22.0118 3.2596 21.9594 3.38161C21.9069 3.50361 21.8306 3.61396 21.7349 3.7062L20.0754 5.3642C21.1884 6.75644 21.8601 8.44863 22.0044 10.2242C22.1488 11.9998 21.7592 13.778 20.8856 15.3312V15.3312ZM8.07257 21.6472L4.34802 17.9272C4.05696 18.447 3.9447 19.0477 4.02846 19.6373C4.11222 20.2269 4.38737 20.7728 4.81171 21.1912C5.23977 21.5972 5.78423 21.8594 6.36892 21.9412C6.95361 22.023 7.54928 21.9202 8.07257 21.6472V21.6472ZM18.0084 6.0472C16.8963 4.92604 15.4323 4.22023 13.8614 4.04784C12.2905 3.87546 10.7079 4.24696 9.37851 5.1002L3.59289 8.6662C3.17331 8.92517 2.81784 9.27557 2.5531 9.69116C2.28836 10.1067 2.12122 10.5768 2.06419 11.066C2.00716 11.5552 2.06172 12.051 2.22378 12.5162C2.38585 12.9814 2.65121 13.4039 3.00001 13.7522L10.3009 21.0432C10.6502 21.3924 11.0744 21.658 11.5413 21.82C12.0083 21.982 12.506 22.0361 12.9969 21.9784C13.4879 21.9206 13.9593 21.7525 14.3758 21.4866C14.7923 21.2207 15.143 20.8639 15.4015 20.4432L19.1621 14.3182C19.8966 13.0009 20.1813 11.4806 19.9731 9.9873C19.765 8.49401 19.0752 7.1091 18.0084 6.0422V6.0472ZM19.2893 24.0002C19.0778 24.0006 18.8716 23.9341 18.7002 23.8103C18.5289 23.6865 18.4012 23.5116 18.3355 23.3109C18.2698 23.1102 18.2694 22.8938 18.3344 22.6929C18.3994 22.4919 18.5265 22.3166 18.6974 22.1922C20.451 20.8758 21.6378 18.9429 22.0173 16.7852C22.0439 16.6553 22.0962 16.532 22.1709 16.4225C22.2457 16.3129 22.3416 16.2193 22.4529 16.1471C22.5642 16.0748 22.6889 16.0254 22.8195 16.0017C22.9501 15.978 23.0842 15.9805 23.2139 16.009C23.3435 16.0375 23.4662 16.0915 23.5748 16.1678C23.6834 16.2441 23.7757 16.3412 23.8464 16.4534C23.917 16.5657 23.9646 16.6908 23.9864 16.8216C24.0082 16.9524 24.0037 17.0862 23.9732 17.2152C23.4825 19.8469 22.0217 22.1993 19.8792 23.8082C19.7078 23.9329 19.5013 24.0002 19.2893 24.0002ZM0.997028 5.7392C0.812055 5.73838 0.630924 5.68642 0.473719 5.58909C0.316514 5.49175 0.189378 5.35285 0.106406 5.18777C0.0234336 5.0227 -0.0121315 4.8379 0.00365376 4.65388C0.019439 4.46985 0.0859577 4.29379 0.195834 4.1452C1.82925 1.96579 4.23367 0.490526 6.91885 0.020204C7.17915 -0.0328393 7.44989 0.0195396 7.67151 0.165818C7.89313 0.312096 8.04749 0.540292 8.10061 0.800204C8.15373 1.06012 8.10127 1.33045 7.95478 1.55175C7.80828 1.77304 7.57974 1.92716 7.31944 1.9802C5.11414 2.34383 3.13545 3.54583 1.79822 5.3342C1.70546 5.45932 1.58473 5.56109 1.44563 5.6314C1.30654 5.70171 1.15293 5.73862 0.997028 5.7392V5.7392Z" fill="white"/>
    </g>
</svg>
