<svg width="10" height="10" viewBox="0 0 10 10" fill="none" xmlns="http://www.w3.org/2000/svg">
    <g clip-path="url(#clip0_1350_229)">
        <path d="M7.29173 0.798828C6.82254 0.806126 6.36359 0.9371 5.96122 1.17852C5.55884 1.41995 5.2273 1.76327 5.00006 2.17383C4.77283 1.76327 4.44129 1.41995 4.03891 1.17852C3.63654 0.9371 3.17758 0.806126 2.7084 0.798828C1.96046 0.831324 1.25577 1.15852 0.748307 1.70892C0.240839 2.25933 -0.0281654 2.98821 6.40012e-05 3.73633C6.40012e-05 5.63091 1.99423 7.70008 3.66673 9.10299C4.04015 9.4168 4.51229 9.58884 5.00006 9.58884C5.48783 9.58884 5.95997 9.4168 6.3334 9.10299C8.0059 7.70008 10.0001 5.63091 10.0001 3.73633C10.0283 2.98821 9.75929 2.25933 9.25182 1.70892C8.74435 1.15852 8.03967 0.831324 7.29173 0.798828Z" fill="white"/>
    </g>
    <defs>
        <clipPath id="clip0_1350_229">
            <rect width="10" height="10" fill="white"/>
        </clipPath>
    </defs>
</svg>
