<svg width="18" height="17" viewBox="0 0 18 17" fill="none" xmlns="http://www.w3.org/2000/svg">
    <path d="M13.125 0.437988C12.2804 0.451124 11.4543 0.686878 10.73 1.12144C10.0058 1.55601 9.40899 2.17399 8.99997 2.91299C8.59095 2.17399 7.99417 1.55601 7.2699 1.12144C6.54562 0.686878 5.71951 0.451124 4.87497 0.437988C3.52867 0.496481 2.26025 1.08543 1.34681 2.07616C0.433363 3.0669 -0.0508442 4.37888 -3.1282e-05 5.72549C-3.1282e-05 9.13574 3.58947 12.8602 6.59997 15.3855C7.27213 15.9503 8.12198 16.26 8.99997 16.26C9.87795 16.26 10.7278 15.9503 11.4 15.3855C14.4105 12.8602 18 9.13574 18 5.72549C18.0508 4.37888 17.5666 3.0669 16.6531 2.07616C15.7397 1.08543 14.4713 0.496481 13.125 0.437988ZM10.4362 14.238C10.0342 14.5765 9.52553 14.7622 8.99997 14.7622C8.4744 14.7622 7.96573 14.5765 7.56372 14.238C3.71022 11.0047 1.49997 7.90274 1.49997 5.72549C1.4487 4.77653 1.77474 3.84579 2.40699 3.13626C3.03924 2.42674 3.92639 1.996 4.87497 1.93799C5.82354 1.996 6.7107 2.42674 7.34295 3.13626C7.97519 3.84579 8.30124 4.77653 8.24997 5.72549C8.24997 5.9244 8.32899 6.11517 8.46964 6.25582C8.61029 6.39647 8.80106 6.47549 8.99997 6.47549C9.19888 6.47549 9.38965 6.39647 9.5303 6.25582C9.67095 6.11517 9.74997 5.9244 9.74997 5.72549C9.6987 4.77653 10.0247 3.84579 10.657 3.13626C11.2892 2.42674 12.1764 1.996 13.125 1.93799C14.0735 1.996 14.9607 2.42674 15.5929 3.13626C16.2252 3.84579 16.5512 4.77653 16.5 5.72549C16.5 7.90274 14.2897 11.0047 10.4362 14.235V14.238Z" fill="white"/>
</svg>
