<svg width="10" height="10" viewBox="0 0 10 10" fill="none" xmlns="http://www.w3.org/2000/svg">
    <path d="M7.58519 3.33559C7.79181 3.33559 7.99844 3.33559 8.20507 3.32891H8.31838C9.4115 3.32224 10.158 4.2095 9.97139 5.28354L9.37151 8.66578C9.2382 9.3996 8.53833 9.98666 7.79181 9.98666L2.21957 10C1.91296 10 1.66634 9.75317 1.66634 9.4463L1.65301 4.44299C1.65301 4.13612 1.89963 3.88929 2.19957 3.88929H2.23956C2.30622 3.88929 2.39287 3.88929 2.49285 3.88929C3.69261 3.90263 4.71908 2.76187 4.71241 1.66114C4.71241 0.533729 5.23231 0.00671352 6.09881 4.24315e-05C6.91199 -0.00662865 7.48521 0.773888 7.49854 1.94133C7.49854 2.28822 7.41855 2.89529 7.31191 3.34226C7.39856 3.33559 7.48521 3.33559 7.58519 3.33559ZM1.10645 4.1628L1.11312 9.71981C1.11312 9.87325 0.986474 10 0.839836 10C0.839836 10 0.839836 10 0.833171 10H0.279945C0.126642 10 0 9.87992 0 9.72649V4.16947C0 4.01604 0.119977 3.88929 0.27328 3.88929H0.81984C0.979809 3.88261 1.10645 4.00937 1.10645 4.1628ZM3.9259 5.15012C3.69928 5.15012 3.51931 5.33024 3.51931 5.55706V5.95732C3.51931 6.18414 3.69928 6.36426 3.9259 6.36426C4.15252 6.36426 4.33249 6.18414 4.33249 5.95732V5.55706C4.33249 5.33024 4.15252 5.15012 3.9259 5.15012ZM7.09862 5.15012C6.87199 5.15012 6.69203 5.33024 6.69203 5.55706V5.95732C6.69203 6.18414 6.87199 6.36426 7.09862 6.36426C7.32524 6.36426 7.5052 6.18414 7.5052 5.95732V5.55706C7.5052 5.33024 7.32524 5.15012 7.09862 5.15012ZM6.51206 6.99134C6.32543 6.87126 6.07215 6.91796 5.95217 7.10475C5.95217 7.10475 5.77221 7.36492 5.50559 7.36492C5.24564 7.36492 5.08567 7.13143 5.07234 7.11142C4.95237 6.92463 4.70575 6.86459 4.51245 6.98467C4.31916 7.10475 4.26583 7.35158 4.37915 7.54504C4.52578 7.77853 4.92571 8.17879 5.49893 8.17879C6.07215 8.17879 6.47874 7.7852 6.62537 7.55171C6.75868 7.36492 6.69869 7.11809 6.51206 6.99134Z" fill="white"/>
</svg>
