<svg width="18" height="18" viewBox="0 0 18 18" fill="none" xmlns="http://www.w3.org/2000/svg">
    <g clip-path="url(#clip0_1350_344)">
        <path d="M14.4996 11.0004C13.9326 11.0009 13.3741 11.1393 12.8725 11.4038C12.3709 11.6683 11.9412 12.0508 11.6204 12.5184L6.73864 10.3142C7.08537 9.47691 7.08672 8.53645 6.74239 7.69818L11.6174 5.48269C12.0928 6.17025 12.7989 6.66466 13.6076 6.87622C14.4163 7.08778 15.274 7.00249 16.0252 6.63581C16.7764 6.26913 17.3713 5.64536 17.702 4.87764C18.0327 4.10991 18.0773 3.24909 17.8277 2.45132C17.578 1.65354 17.0507 0.971658 16.3414 0.529352C15.6321 0.0870461 14.7878 -0.086385 13.9616 0.0405177C13.1353 0.16742 12.3819 0.586251 11.8381 1.22104C11.2942 1.85582 10.9958 2.66452 10.9971 3.50044C11.0003 3.69829 11.0204 3.8955 11.0571 4.08994L5.87464 6.44494C5.37689 5.9786 4.75377 5.66781 4.08182 5.55076C3.40987 5.4337 2.71836 5.51547 2.09225 5.78603C1.46613 6.05658 0.932682 6.50414 0.557436 7.07371C0.182189 7.64328 -0.0185125 8.31005 -0.0200111 8.99212C-0.0215097 9.67419 0.176259 10.3418 0.549 10.9131C0.92174 11.4843 1.45322 11.9342 2.07814 12.2075C2.70306 12.4808 3.3942 12.5656 4.06666 12.4515C4.73912 12.3374 5.3636 12.0293 5.86339 11.5652L11.0594 13.9112C11.0233 14.1054 11.0035 14.3024 11.0001 14.4999C11 15.1923 11.2052 15.8691 11.5897 16.4449C11.9743 17.0206 12.5209 17.4693 13.1606 17.7344C13.8002 17.9994 14.504 18.0688 15.1831 17.9337C15.8621 17.7987 16.4859 17.4653 16.9754 16.9757C17.465 16.4862 17.7984 15.8624 17.9334 15.1834C18.0685 14.5043 17.9991 13.8005 17.7341 13.1609C17.469 12.5212 17.0203 11.9746 16.4446 11.59C15.8688 11.2055 15.192 11.0003 14.4996 11.0004ZM14.4996 1.50019C14.8953 1.50004 15.2821 1.61722 15.6111 1.83692C15.9402 2.05662 16.1967 2.36897 16.3482 2.73445C16.4997 3.09994 16.5394 3.50215 16.4623 3.89021C16.3852 4.27826 16.1948 4.63475 15.915 4.91456C15.6353 5.19438 15.2789 5.38496 14.8909 5.4622C14.5029 5.53944 14.1006 5.49987 13.7351 5.3485C13.3696 5.19712 13.0571 4.94075 12.8373 4.61179C12.6175 4.28284 12.5001 3.89608 12.5001 3.50044C12.5005 2.97019 12.7113 2.46176 13.0862 2.08675C13.461 1.71174 13.9694 1.50078 14.4996 1.50019ZM3.50014 11.0004C3.10449 11.0006 2.71769 10.8834 2.38866 10.6637C2.05962 10.444 1.80312 10.1317 1.65161 9.76617C1.5001 9.40068 1.46039 8.99848 1.53748 8.61042C1.61458 8.22236 1.80502 7.86588 2.08473 7.58606C2.36444 7.30625 2.72085 7.11567 3.10888 7.03842C3.49691 6.96118 3.89914 7.00075 4.26468 7.15212C4.63022 7.3035 4.94266 7.55987 5.16248 7.88883C5.38231 8.21778 5.49964 8.60454 5.49964 9.00019C5.49904 9.53037 5.28822 10.0387 4.91339 10.4137C4.53856 10.7886 4.03033 10.9996 3.50014 11.0004ZM14.4996 16.5002C14.104 16.5002 13.7173 16.3829 13.3884 16.1631C13.0594 15.9433 12.803 15.6309 12.6516 15.2654C12.5003 14.8999 12.4606 14.4977 12.5378 14.1097C12.615 13.7217 12.8055 13.3653 13.0852 13.0855C13.365 12.8058 13.7214 12.6153 14.1094 12.5381C14.4974 12.4609 14.8996 12.5006 15.2651 12.6519C15.6306 12.8033 15.943 13.0597 16.1628 13.3887C16.3826 13.7176 16.4999 14.1043 16.4999 14.4999C16.4995 15.0303 16.2886 15.5389 15.9136 15.9139C15.5386 16.2889 15.03 16.4998 14.4996 16.5002Z" fill="white"/>
    </g>
    <defs>
        <clipPath id="clip0_1350_344">
            <rect width="18" height="18" fill="white"/>
        </clipPath>
    </defs>
</svg>
