<svg width="14" height="14" viewBox="0 0 14 14" fill="none" xmlns="http://www.w3.org/2000/svg">
    <g clip-path="url(#clip0_1350_205)">
        <path d="M7.00008 3.5C6.53859 3.5 6.08747 3.63685 5.70375 3.89324C5.32004 4.14963 5.02097 4.51404 4.84436 4.94041C4.66776 5.36677 4.62155 5.83592 4.71158 6.28854C4.80162 6.74117 5.02384 7.15693 5.35017 7.48325C5.67649 7.80957 6.09225 8.0318 6.54487 8.12183C6.99749 8.21187 7.46665 8.16566 7.89301 7.98905C8.31937 7.81245 8.68379 7.51338 8.94018 7.12966C9.19657 6.74595 9.33342 6.29482 9.33342 5.83333C9.33342 5.2145 9.08758 4.621 8.65 4.18342C8.21241 3.74583 7.61892 3.5 7.00008 3.5ZM7.00008 7C6.76934 7 6.54378 6.93158 6.35192 6.80338C6.16006 6.67519 6.01053 6.49298 5.92222 6.2798C5.83392 6.06662 5.81082 5.83204 5.85583 5.60573C5.90085 5.37942 6.01196 5.17154 6.17513 5.00838C6.33829 4.84521 6.54617 4.7341 6.77248 4.68908C6.99879 4.64407 7.23337 4.66717 7.44655 4.75547C7.65973 4.84378 7.84194 4.99331 7.97013 5.18517C8.09833 5.37703 8.16675 5.60259 8.16675 5.83333C8.16675 6.14275 8.04383 6.4395 7.82504 6.65829C7.60625 6.87708 7.3095 7 7.00008 7Z" fill="#CCCCCC"/>
        <path d="M6.99994 14.0002C6.50874 14.0027 6.02409 13.8875 5.58656 13.6642C5.14903 13.4409 4.77137 13.1161 4.48519 12.7169C2.2621 9.65027 1.13452 7.34494 1.13452 5.86444C1.13452 4.30884 1.75248 2.81694 2.85246 1.71696C3.95244 0.616985 5.44433 -0.000976562 6.99994 -0.000976562C8.55554 -0.000976562 10.0474 0.616985 11.1474 1.71696C12.2474 2.81694 12.8654 4.30884 12.8654 5.86444C12.8654 7.34494 11.7378 9.65027 9.51469 12.7169C9.22851 13.1161 8.85084 13.4409 8.41332 13.6642C7.97579 13.8875 7.49114 14.0027 6.99994 14.0002ZM6.99994 1.27244C5.78218 1.27383 4.6147 1.7582 3.75361 2.61928C2.89253 3.48037 2.40816 4.64785 2.40677 5.86561C2.40677 7.03811 3.51102 9.20636 5.51536 11.9708C5.68551 12.2051 5.90874 12.3959 6.16677 12.5274C6.42481 12.659 6.71031 12.7275 6.99994 12.7275C7.28956 12.7275 7.57507 12.659 7.83311 12.5274C8.09114 12.3959 8.31437 12.2051 8.48452 11.9708C10.4889 9.20636 11.5931 7.03811 11.5931 5.86561C11.5917 4.64785 11.1073 3.48037 10.2463 2.61928C9.38518 1.7582 8.2177 1.27383 6.99994 1.27244Z" fill="#CCCCCC"/>
    </g>
    <defs>
        <clipPath id="clip0_1350_205">
            <rect width="14" height="14" fill="white"/>
        </clipPath>
    </defs>
</svg>
