<svg width="12" height="12" viewBox="0 0 12 12" fill="none" xmlns="http://www.w3.org/2000/svg">
    <path d="M4.59387 6.85621C4.47841 6.74328 4.3413 6.6537 4.1904 6.59258C4.03949 6.53146 3.87774 6.5 3.71439 6.5C3.55104 6.5 3.38929 6.53146 3.23839 6.59258C3.08748 6.6537 2.95038 6.74328 2.83491 6.85621L0 9.62693C0.0383212 10.1349 0.271433 10.6101 0.652722 10.9573C1.03401 11.3046 1.53537 11.4984 2.05655 11.5H7.85899C8.26505 11.4999 8.66202 11.3825 9 11.1626L4.59387 6.85621Z" fill="white"/>
    <path d="M7.5 5C8.05228 5 8.5 4.55228 8.5 4C8.5 3.44772 8.05228 3 7.5 3C6.94772 3 6.5 3.44772 6.5 4C6.5 4.55228 6.94772 5 7.5 5Z" fill="white"/>
    <path d="M7.91667 1.5H2.08333C1.531 1.50066 1.00148 1.71882 0.610925 2.10663C0.220367 2.49444 0.000661607 3.02023 0 3.56868L0 8.36223L2.27667 6.10157C2.47013 5.90942 2.69982 5.75699 2.95262 5.653C3.20541 5.549 3.47637 5.49548 3.75 5.49548C4.02363 5.49548 4.29459 5.549 4.54738 5.653C4.80018 5.75699 5.02987 5.90942 5.22333 6.10157L9.65292 10.5C9.87916 10.1626 9.99992 9.76633 10 9.36098V3.56868C9.99934 3.02023 9.77963 2.49444 9.38908 2.10663C8.99852 1.71882 8.469 1.50066 7.91667 1.5V1.5ZM7.5 5.63736C7.17036 5.63736 6.84813 5.5403 6.57405 5.35845C6.29997 5.1766 6.08635 4.91814 5.9602 4.61574C5.83405 4.31333 5.80105 3.98058 5.86536 3.65955C5.92967 3.33852 6.0884 3.04364 6.32149 2.81219C6.55458 2.58075 6.85155 2.42313 7.17485 2.35927C7.49815 2.29542 7.83326 2.32819 8.1378 2.45345C8.44235 2.57871 8.70265 2.79082 8.88578 3.06298C9.06892 3.33513 9.16667 3.6551 9.16667 3.98242C9.16667 4.42133 8.99107 4.84228 8.67851 5.15264C8.36595 5.463 7.94203 5.63736 7.5 5.63736Z" fill="white"/>
    <path fill-rule="evenodd" clip-rule="evenodd" d="M3.18361 0H9.2977C9.87662 0.000693451 10.4316 0.230974 10.841 0.64033C11.2503 1.04969 11.4806 1.60469 11.4813 2.18361V8.29771C11.4812 8.72557 11.3547 9.14386 11.1175 9.5L10.6078 8.99025V3.05665C10.6071 2.47774 10.3768 1.92273 9.96745 1.51338C9.55809 1.10402 9.00309 0.87374 8.42417 0.873047H2.31007C1.9423 0.873487 1.58418 0.966583 1.26692 1.13938C1.36604 0.957648 1.49132 0.789339 1.64033 0.64033C2.04969 0.230974 2.60469 0.000693451 3.18361 0ZM1 7.24297V7.24346L2.54062 5.70284C2.53124 5.71189 2.52194 5.72103 2.51271 5.73026L1 7.24297Z" fill="white"/>
</svg>
