<svg width="32" height="32" viewBox="0 0 32 32" fill="none" xmlns="http://www.w3.org/2000/svg">
    <g clip-path="url(#clip0_1642_2707)" filter="url(#filter0_d_1642_2707)">
        <path d="M20.0854 13.3176L15.8129 10.4026C15.4792 10.1752 15.0844 10.0383 14.6721 10.0069C14.2599 9.97558 13.8464 10.0511 13.4774 10.225C13.1085 10.3989 12.7985 10.6645 12.5819 10.9924C12.3652 11.3202 12.2503 11.6974 12.25 12.0823V17.9153C12.2494 18.3005 12.3636 18.6784 12.5801 19.0067C12.7965 19.3351 13.1067 19.6012 13.476 19.7753C13.8453 19.9494 14.2593 20.0247 14.6719 19.9929C15.0845 19.961 15.4795 19.8233 15.8129 19.595L20.0854 16.6799C20.3689 16.4863 20.5994 16.2334 20.7583 15.9415C20.9172 15.6496 21 15.327 21 14.9998C21 14.6726 20.9172 14.35 20.7583 14.0582C20.5994 13.7663 20.3689 13.5133 20.0854 13.3197V13.3176Z" fill="white" fill-opacity="0.7"/>
        <path d="M16 0C13.0333 0 10.1332 0.879735 7.66645 2.52796C5.19972 4.17618 3.27713 6.51886 2.14181 9.25975C1.0065 12.0006 0.709449 15.0166 1.28823 17.9264C1.86701 20.8361 3.29562 23.5088 5.3934 25.6066C7.49119 27.7044 10.1639 29.133 13.0737 29.7118C15.9834 30.2906 18.9994 29.9935 21.7403 28.8582C24.4811 27.7229 26.8238 25.8003 28.472 23.3336C30.1203 20.8668 31 17.9667 31 15C30.9957 11.0231 29.414 7.21026 26.6019 4.39815C23.7897 1.58604 19.9769 0.00430135 16 0V0ZM16 27.5C13.5277 27.5 11.111 26.7669 9.05538 25.3934C6.99976 24.0199 5.39761 22.0676 4.45151 19.7835C3.50542 17.4995 3.25788 14.9861 3.74019 12.5614C4.22251 10.1366 5.41302 7.90932 7.16117 6.16117C8.90933 4.41301 11.1366 3.2225 13.5614 2.74018C15.9861 2.25787 18.4995 2.50541 20.7836 3.45151C23.0676 4.3976 25.0199 5.99976 26.3934 8.05537C27.7669 10.111 28.5 12.5277 28.5 15C28.4964 18.3141 27.1782 21.4914 24.8348 23.8348C22.4914 26.1782 19.3141 27.4964 16 27.5Z" fill="white" fill-opacity="0.7"/>
    </g>
    <defs>
        <filter id="filter0_d_1642_2707" x="0" y="0" width="32" height="32" filterUnits="userSpaceOnUse" color-interpolation-filters="sRGB">
            <feFlood flood-opacity="0" result="BackgroundImageFix"/>
            <feColorMatrix in="SourceAlpha" type="matrix" values="0 0 0 0 0 0 0 0 0 0 0 0 0 0 0 0 0 0 127 0" result="hardAlpha"/>
            <feOffset dy="1"/>
            <feGaussianBlur stdDeviation="0.5"/>
            <feComposite in2="hardAlpha" operator="out"/>
            <feColorMatrix type="matrix" values="0 0 0 0 0 0 0 0 0 0 0 0 0 0 0 0 0 0 0.25 0"/>
            <feBlend mode="normal" in2="BackgroundImageFix" result="effect1_dropShadow_1642_2707"/>
            <feBlend mode="normal" in="SourceGraphic" in2="effect1_dropShadow_1642_2707" result="shape"/>
        </filter>
        <clipPath id="clip0_1642_2707">
            <rect width="30" height="30" fill="white" transform="translate(1)"/>
        </clipPath>
    </defs>
</svg>
