<svg width="15" height="15" viewBox="0 0 15 15" fill="none" xmlns="http://www.w3.org/2000/svg">
    <g clip-path="url(#clip0_1353_212)">
        <path d="M7.50025 1.25017C8.32932 1.25289 9.14961 1.42001 9.91367 1.74185C10.6777 2.06369 11.3704 2.53387 11.9515 3.12517H10.0002C9.83449 3.12517 9.67552 3.19102 9.55831 3.30823C9.4411 3.42544 9.37525 3.58441 9.37525 3.75017C9.37525 3.91593 9.4411 4.0749 9.55831 4.19211C9.67552 4.30932 9.83449 4.37517 10.0002 4.37517H12.5896C12.8974 4.37501 13.1925 4.25267 13.4101 4.03505C13.6278 3.81743 13.7501 3.52231 13.7502 3.21455V0.625173C13.7502 0.459412 13.6844 0.300441 13.5672 0.183231C13.45 0.0660205 13.291 0.000172478 13.1252 0.000172478C12.9595 0.000172478 12.8005 0.0660205 12.6833 0.183231C12.5661 0.300441 12.5002 0.459412 12.5002 0.625173V1.92392C11.4672 0.993581 10.1956 0.369179 8.82781 0.120641C7.46 -0.127897 6.05001 0.00924245 4.75574 0.516702C3.46146 1.02416 2.33401 1.8819 1.49963 2.99388C0.665253 4.10585 0.1569 5.42814 0.0314986 6.81267C0.0234257 6.89971 0.033571 6.98747 0.061288 7.07037C0.0890049 7.15327 0.133686 7.22949 0.192484 7.29416C0.251282 7.35884 0.322908 7.41056 0.402797 7.44603C0.482687 7.4815 0.569089 7.49994 0.656499 7.50017C0.809366 7.50212 0.957458 7.44695 1.07179 7.34545C1.18611 7.24396 1.25845 7.10344 1.27462 6.95142C1.41376 5.39564 2.12961 3.94811 3.28155 2.8932C4.43349 1.83828 5.93826 1.25223 7.50025 1.25017Z" fill="#999999"/>
        <path d="M14.3444 7.50005C14.1915 7.4981 14.0434 7.55328 13.9291 7.65477C13.8148 7.75627 13.7424 7.89678 13.7262 8.0488C13.6229 9.23833 13.1806 10.3733 12.4517 11.3189C11.7227 12.2646 10.7379 12.9814 9.61384 13.3842C8.48983 13.7869 7.27387 13.8589 6.11022 13.5914C4.94657 13.3239 3.88406 12.7282 3.04875 11.8751H5C5.16576 11.8751 5.32473 11.8092 5.44194 11.692C5.55915 11.5748 5.625 11.4158 5.625 11.2501C5.625 11.0843 5.55915 10.9253 5.44194 10.8081C5.32473 10.6909 5.16576 10.6251 5 10.6251H2.41063C2.25819 10.625 2.10723 10.6549 1.96638 10.7132C1.82553 10.7715 1.69755 10.857 1.58976 10.9648C1.48197 11.0726 1.39648 11.2006 1.33818 11.3414C1.27988 11.4823 1.24992 11.6332 1.25 11.7857V14.3751C1.25 14.5408 1.31585 14.6998 1.43306 14.817C1.55027 14.9342 1.70924 15.0001 1.875 15.0001C2.04076 15.0001 2.19973 14.9342 2.31694 14.817C2.43415 14.6998 2.5 14.5408 2.5 14.3751V13.0763C3.53302 14.0067 4.80463 14.6311 6.17244 14.8796C7.54024 15.1281 8.95023 14.991 10.2445 14.4835C11.5388 13.9761 12.6662 13.1183 13.5006 12.0064C14.335 10.8944 14.8433 9.57209 14.9688 8.18755C14.9768 8.10052 14.9667 8.01275 14.939 7.92985C14.9112 7.84695 14.8666 7.77074 14.8078 7.70606C14.749 7.64138 14.6773 7.58966 14.5975 7.55419C14.5176 7.51872 14.4312 7.50028 14.3438 7.50005H14.3444Z" fill="#999999"/>
    </g>
    <defs>
        <clipPath id="clip0_1353_212">
            <rect width="15" height="15" fill="white"/>
        </clipPath>
    </defs>
</svg>
