<svg width="20" height="20" viewBox="0 0 20 20" fill="none" xmlns="http://www.w3.org/2000/svg">
    <g clip-path="url(#clip0_1642_2655)">
        <path d="M6.80318 6.66611C6.32034 6.65925 5.855 6.4842 5.48735 6.17111C4.71967 5.46718 4.25461 4.49316 4.18986 3.45361C3.98736 1.37528 5.12069 0.150277 6.34485 0.0136107C6.63982 -0.019284 6.93839 0.00759451 7.22274 0.0926417C7.50709 0.177689 7.77139 0.319161 7.99985 0.508611C8.3409 0.815913 8.61779 1.18764 8.81459 1.6024C9.01138 2.01716 9.12419 2.46674 9.14652 2.92528C9.33318 4.86111 8.30152 6.66611 6.80318 6.66611ZM2.37736 11.6661C1.93392 11.656 1.51056 11.4792 1.19153 11.1711C0.486103 10.4366 0.071504 9.47091 0.0248602 8.45361C-0.158473 6.37528 0.863192 5.15028 1.96736 5.01361C2.23651 4.98286 2.50914 5.01122 2.7662 5.09672C3.02326 5.18221 3.25857 5.32278 3.45569 5.50861C4.08967 6.15705 4.45851 7.01895 4.48986 7.92528C4.65735 9.86111 3.63236 11.6661 2.37736 11.6661ZM13.1965 6.66611C11.6882 6.66611 10.6682 4.86111 10.8573 2.92278C10.8797 2.46424 10.9925 2.01466 11.1893 1.5999C11.3861 1.18514 11.663 0.813413 12.004 0.506111C12.2322 0.317756 12.4959 0.177115 12.7795 0.0925189C13.0631 0.00792225 13.3607 -0.0189102 13.6548 0.0136107C14.879 0.150277 16.0123 1.37528 15.8098 3.45361C15.745 4.49339 15.28 5.46765 14.5123 6.17194C14.1444 6.48448 13.6792 6.6592 13.1965 6.66611ZM17.544 11.6661C15.9723 11.6661 15.1882 9.86111 15.3648 7.92278C15.3999 7.01066 15.7817 6.1463 16.4323 5.50611C16.6388 5.3189 16.8828 5.1779 17.1481 5.09253C17.4134 5.00717 17.6938 4.97941 17.9707 5.01111C19.1107 5.14778 20.1665 6.37278 19.9782 8.45111C19.9252 9.4756 19.4944 10.4441 18.769 11.1694C18.4353 11.4795 17.9994 11.6563 17.544 11.6661ZM13.3332 19.9994C12.621 20.0135 11.9176 19.8396 11.294 19.4953C10.895 19.2851 10.4508 19.1752 9.99985 19.1752C9.54887 19.1752 9.10468 19.2851 8.70568 19.4953C6.19485 20.9011 3.26819 19.3553 3.33319 15.8328C3.33319 11.9694 7.08902 8.33278 9.99985 8.33278C12.9107 8.33278 16.6665 11.9694 16.6665 15.8328C16.6665 18.2861 15.2957 19.9994 13.3332 19.9994Z" fill="url(#paint0_linear_1642_2655)"/>
    </g>
    <defs>
        <linearGradient id="paint0_linear_1642_2655" x1="1.33656" y1="4.00244" x2="12.4978" y2="27.4514" gradientUnits="userSpaceOnUse">
            <stop stop-color="#EC2A83"/>
            <stop offset="1" stop-color="#871CF4"/>
        </linearGradient>
        <clipPath id="clip0_1642_2655">
            <rect width="20" height="20" fill="white"/>
        </clipPath>
    </defs>
</svg>
