<svg width="20" height="20" viewBox="0 0 20 20" fill="none" xmlns="http://www.w3.org/2000/svg">
    <path d="M11.6667 5.83435C11.6667 6.16399 11.569 6.48622 11.3858 6.7603C11.2027 7.03439 10.9424 7.24801 10.6379 7.37415C10.3333 7.5003 9.9982 7.53331 9.6749 7.469C9.3516 7.40469 9.05463 7.24595 8.82154 7.01287C8.58845 6.77978 8.42972 6.48281 8.36541 6.15951C8.3011 5.8362 8.33411 5.50109 8.46025 5.19655C8.5864 4.89201 8.80002 4.63171 9.0741 4.44857C9.34818 4.26544 9.67042 4.16769 10.0001 4.16769C10.4421 4.16769 10.866 4.34328 11.1786 4.65584C11.4911 4.9684 11.6667 5.39233 11.6667 5.83435ZM14.1317 10.1544L11.5834 12.6802C11.3766 12.8887 11.1306 13.0541 10.8596 13.167C10.5885 13.28 10.2978 13.3381 10.0042 13.3381C9.7106 13.3381 9.41989 13.28 9.14885 13.167C8.87781 13.0541 8.63182 12.8887 8.42505 12.6802L5.87838 10.1677C4.78485 9.04032 4.17244 7.53197 4.17058 5.96138C4.16871 4.39078 4.77753 2.88098 5.86838 1.75102C6.40452 1.19709 7.04657 0.756632 7.75635 0.455823C8.46613 0.155013 9.22916 0 10.0001 0C10.7709 0 11.534 0.155013 12.2438 0.455823C12.9535 0.756632 13.5956 1.19709 14.1317 1.75102C15.2209 2.87855 15.8297 4.38499 15.8297 5.95269C15.8297 7.52039 15.2209 9.02683 14.1317 10.1544ZM13.3334 5.83435C13.3334 5.17508 13.1379 4.53062 12.7716 3.98245C12.4053 3.43429 11.8848 3.00705 11.2757 2.75476C10.6666 2.50246 9.99635 2.43645 9.34975 2.56507C8.70315 2.69369 8.1092 3.01116 7.64303 3.47733C7.17685 3.94351 6.85938 4.53745 6.73077 5.18405C6.60215 5.83066 6.66816 6.50088 6.92045 7.10997C7.17274 7.71905 7.59999 8.23965 8.14815 8.60592C8.69631 8.97219 9.34078 9.16769 10.0001 9.16769C10.8841 9.16769 11.732 8.8165 12.3571 8.19138C12.9822 7.56626 13.3334 6.71841 13.3334 5.83435ZM17.2942 7.66769C16.9901 9.04497 16.3079 10.3101 15.3242 11.321L12.7592 13.8652C12.3984 14.2269 11.9698 14.514 11.4979 14.7101C11.026 14.9061 10.5202 15.0072 10.0092 15.0077C9.49854 15.0079 8.99282 14.9074 8.52096 14.7121C8.04911 14.5168 7.62036 14.2304 7.25922 13.8694L4.70672 11.3502C3.736 10.3537 3.05472 9.11182 2.73588 7.75769C2.19463 7.95608 1.69974 8.26323 1.28172 8.66019C0.87426 9.04757 0.550363 9.51422 0.32995 10.0314C0.109538 10.5486 -0.00273094 11.1055 5.04432e-05 11.6677V15.0635C0.00180177 15.9646 0.294877 16.841 0.835543 17.5619C1.37621 18.2828 2.13548 18.8095 3.00005 19.0635L5.39172 19.8135C5.79344 19.9385 6.21183 20.0018 6.63255 20.001C7.01421 20.0005 7.39404 19.9484 7.76172 19.846L12.5784 18.421C13.0074 18.3035 13.4602 18.3035 13.8892 18.421L15.8784 19.0877C16.3686 19.207 16.8796 19.2135 17.3727 19.1066C17.8658 18.9998 18.3282 18.7824 18.7251 18.4708C19.122 18.1592 19.4429 17.7616 19.6638 17.308C19.8846 16.8543 19.9996 16.3564 20.0001 15.8519V11.561C19.9972 10.7142 19.7369 9.88827 19.2536 9.19289C18.7703 8.49751 18.0869 7.96557 17.2942 7.66769Z" fill="url(#paint0_linear_1642_2654)"/>
    <defs>
        <linearGradient id="paint0_linear_1642_2654" x1="1.33337" y1="4.00035" x2="12.4839" y2="27.4431" gradientUnits="userSpaceOnUse">
            <stop stop-color="#EC2A83"/>
            <stop offset="1" stop-color="#871CF4"/>
        </linearGradient>
    </defs>
</svg>
